
<svg id="Calque_1" data-name="Calque 1" xmlns="http://www.w3.org/2000/svg" viewBox="0 0 387.07 83.65"><defs><style>.cls-1,.cls-2{fill:#0095b6;}.cls-1{fill-rule:evenodd;}</style></defs><title>MERINAL LOGO</title><g id="_Groupe_" data-name="&lt;Groupe&gt;"><g id="_Groupe_2" data-name="&lt;Groupe&gt;"><g id="_Groupe_3" data-name="&lt;Groupe&gt;"><path id="_Tracé_" data-name="&lt;Tracé&gt;" class="cls-1" d="M99.13,106.55l0-67.46A38.42,38.42,0,0,1,118.6,72.53c0,14.59-7.93,26.72-19.47,34" transform="translate(-32.71 -32.42)"/><path id="_Tracé_2" data-name="&lt;Tracé&gt;" class="cls-1" d="M79.68,32.42A58.56,58.56,0,0,1,97.31,37.3V64l-1.8-2.41v31l-15.83,0V32.42Z" transform="translate(-32.71 -32.42)"/><path id="_Tracé_3" data-name="&lt;Tracé&gt;" class="cls-1" d="M59.65,37.3a53.87,53.87,0,0,1,17.6-4.87v23.1l-1.82-2.44V92.6H59.65V37.3Z" transform="translate(-32.71 -32.42)"/><path id="_Tracé_4" data-name="&lt;Tracé&gt;" class="cls-1" d="M99.13,106.55c-9.11,7.31-21.85,11.56-34,8.54-22.49-4.28-35.86-25.55-31.61-47.4,2.41-14.6,12.77-25.52,26.15-30.39C47.47,44,38.35,57.36,38.35,72.53c0,21.89,18.26,39.52,40.12,39.52a42.94,42.94,0,0,0,20.66-5.5" transform="translate(-32.71 -32.42)"/></g></g><path id="_Tracé_5" data-name="&lt;Tracé&gt;" class="cls-2" d="M165.06,73.65c-0.34.67-.64,1.33-0.91,1.95s-0.53,1.26-.74,1.87H151.22c-0.18-.82-0.32-1.48-0.48-2s-0.27-1-.4-1.38l-7.67-23-2.28,18c-0.11,1-.21,2.13-0.32,3.54s-0.21,3-.32,4.9h-9.46c0.82-3.74,1.59-8.26,2.25-13.6s1.22-11.31,1.67-17.95H150c0.19,0.7.38,1.38,0.58,2.07S151,49,151,49l7.12,21.69L168.39,50l0.05-.11c0.71-1.55,1.26-2.87,1.65-3.93h15.15c-0.17,1.66-.27,3.52-0.36,5.57a9.26,9.26,0,0,1-.08,1l-0.87,18c0,0.16,0,.44,0,0.89s0,0.78,0,1.07c0,0.67,0,1.45,0,2.29s0.07,1.78.12,2.76h-9.55c0.14-.87.27-1.73,0.38-2.6s0.18-1.8.21-2.82l0.55-12.87V56.55c0-1.22,0-2.19,0-2.86s0-1.3-.05-1.88Z" transform="translate(-32.71 -32.42)"/><path id="_Tracé_6" data-name="&lt;Tracé&gt;" class="cls-2" d="M191.56,77.46c0.65-4,1.16-8.68,1.57-14s0.67-11.17.81-17.57h34l-0.34,5.78c-1.8-.06-3.42-0.1-4.89-0.14l-3.25,0H203.8a5.22,5.22,0,0,0-.36,1.28,16.71,16.71,0,0,0-.25,2.27L203,58.12h14q3.21,0,4.77,0c1.05,0,2-.1,2.89-0.17l-0.3,5.95c-0.75-.05-1.61-0.09-2.51-0.11s-2.25,0-4,0H202.64L202.27,67c-0.09,1-.15,1.72-0.21,2.29s-0.07,1.1-.07,1.59L202,71.58l3.62,0.09h2.84q5.13,0,9.44-.12c2.87-.08,5.53-0.19,8-0.35l-0.33,6.25h-34Z" transform="translate(-32.71 -32.42)"/><path id="_Tracé_7" data-name="&lt;Tracé&gt;" class="cls-2" d="M231.54,77.46c0.63-4,1.15-8.64,1.56-14s0.67-11.22.8-17.57h20.41c2.46,0,4.27.06,5.44,0.19a14.94,14.94,0,0,1,3.06.63,8.86,8.86,0,0,1,4.31,2.91,7.4,7.4,0,0,1,1.57,4.69,6.92,6.92,0,0,1-2.82,5.48,20.72,20.72,0,0,1-8.25,3.68q2.4,3.83,4.68,7.29c1.51,2.3,3,4.53,4.56,6.68H256L244.88,59.41c0.61,0.06,1.27.11,1.93,0.13s1.35,0.05,2.09.05c3.39,0,5.91-.4,7.59-1.21A3.94,3.94,0,0,0,259,54.69a2.94,2.94,0,0,0-1.83-2.92C256,51.26,253.56,51,250,51c-0.9,0-1.82,0-2.81,0s-2,.05-3.07.1a17.6,17.6,0,0,0-.54,2.22c-0.11.74-.19,1.49-0.24,2.27l-0.67,12.24c0,0.31-.1,1.58-0.18,3.82s-0.14,4.16-.21,5.79H231.54Z" transform="translate(-32.71 -32.42)"/><path id="_Tracé_8" data-name="&lt;Tracé&gt;" class="cls-2" d="M285.72,45.92c-0.23,1.44-.43,2.67-0.6,3.72s-0.21,2-.27,2.83l-1.39,18c0,0.26,0,.54,0,0.85s0,0.83,0,1.54c0,1.12,0,2,0,2.7v1.95H272.59c0.69-3.85,1.21-8.41,1.62-13.74s0.68-11.28.82-17.81h10.7Z" transform="translate(-32.71 -32.42)"/><path id="_Tracé_9" data-name="&lt;Tracé&gt;" class="cls-2" d="M319.1,77.46a73,73,0,0,0-4.35-7.54c-0.34-.56-0.55-1-0.74-1.25L302.62,50.78l-1.19,16.86c-0.19,2.3-.32,5.46-0.4,9.45v0.38h-9.48q0.7-3.9,1.31-10.53c0.38-4.42.85-11.43,1.38-21h15.19l17,26.44,1.25-19c0.11-1.43.2-2.54,0.22-3.31s0.05-1.54.05-2.28c0-.18,0-0.46,0-0.87s0-.73,0-0.94h9.46c-0.27,1.44-.46,2.67-0.61,3.7s-0.22,2-.27,2.88l-1.34,18c-0.05.63-.07,1.25-0.11,1.8s0,1.13,0,1.71c0,0.32,0,.88,0,1.63s0,1.4,0,1.86h-16Z" transform="translate(-32.71 -32.42)"/><path class="cls-2" d="M337,77.46L356,49.77a11.31,11.31,0,0,0,1-1.66c0.34-.66.66-1.4,1-2.19h13.82c0.4,1.06.79,2,1.17,2.9s0.78,1.67,1.18,2.43L387.8,77.46H376.74c-0.29-1.2-.52-2.06-0.69-2.57a9.76,9.76,0,0,0-.44-1.19l-4.66-8.82H355.06L350,72.67a14.29,14.29,0,0,0-1.2,2c-0.38.77-.78,1.7-1.21,2.76H337ZM364,50.2l-6.08,9.63h11Z" transform="translate(-32.71 -32.42)"/><path id="_Tracé_10" data-name="&lt;Tracé&gt;" class="cls-2" d="M389.1,77.46c0.62-4,1.12-8.68,1.53-14s0.69-11.17.82-17.57H402a30.08,30.08,0,0,0-.85,5.89l0,0.16-1,13.76,0,0.14c0,1.25-.08,2.16-0.08,2.72s0,1.06.08,1.79,0.09,1.21.11,1.41c0.34,0,1.06,0,2.14.07s2,0.05,2.6.05c2.95,0,5.64-.05,8.09-0.17s4.72-.29,6.75-0.51l-0.65,6.23h-30Z" transform="translate(-32.71 -32.42)"/><path id="_Tracé_11" data-name="&lt;Tracé&gt;" class="cls-2" d="M129.28,106.26c0.26-2,.5-4.34.69-7s0.31-5.58.39-8.76h4.82a16.64,16.64,0,0,0-.4,2.92v0.09l-0.45,6.86v0.08c0,0.62-.05,1.07-0.05,1.37s0,0.51,0,.88,0.05,0.59.05,0.69l1,0.05,1.19,0c1.34,0,2.57,0,3.69-.08s2.19-.14,3.12-0.26L143,106.26H129.28Z" transform="translate(-32.71 -32.42)"/><path class="cls-2" d="M149.79,106.26l8.68-13.82a5.84,5.84,0,0,0,.45-0.83,9.24,9.24,0,0,0,.45-1.09h6.35q0.28,0.8.55,1.44a11.2,11.2,0,0,0,.54,1.22l6.28,13.08H168c-0.13-.6-0.24-1-0.32-1.26s-0.15-.46-0.21-0.6L165.35,100H158l-2.34,3.84a8.29,8.29,0,0,0-.57,1,13.23,13.23,0,0,0-.55,1.36h-4.8Zm12.36-13.57-2.8,4.81h5Z" transform="translate(-32.71 -32.42)"/><path class="cls-2" d="M188.69,90.52c2.87,0,4.84.26,6,.8a2.81,2.81,0,0,1,1.68,2.75A3.22,3.22,0,0,1,195,96.71,7.41,7.41,0,0,1,191.28,98a7.78,7.78,0,0,1,4,1.13,3,3,0,0,1,1.29,2.64,3.55,3.55,0,0,1-2.07,3.41,14.93,14.93,0,0,1-6.53,1.08h-8.26c0.34-2.08.6-4.43,0.77-7.1s0.3-5.53.34-8.64h7.9Zm-4,13h3.1a7,7,0,0,0,3.21-.55,1.7,1.7,0,0,0,1.05-1.66,1.64,1.64,0,0,0-.88-1.51,5.49,5.49,0,0,0-2.64-.51H184.8l-0.1,1.47c0,0.43,0,.76-0.05,1s0,0.4,0,.61,0,0.3,0,.58,0,0.48,0,.6M185,96.71h2.31a8.15,8.15,0,0,0,3.37-.53,1.71,1.71,0,0,0,1.07-1.61,1.19,1.19,0,0,0-.67-1.18,5.72,5.72,0,0,0-2.41-.37h-3.36c0,0.4-.08.77-0.1,1.08s-0.05.53-.05,0.66Z" transform="translate(-32.71 -32.42)"/><path class="cls-2" d="M216.62,106.58c-3.81,0-6.73-.7-8.78-2a6.58,6.58,0,0,1-3.05-5.82,7.28,7.28,0,0,1,3.14-6.27c2.1-1.5,5-2.26,8.69-2.26s6.75,0.68,8.79,2a6.58,6.58,0,0,1,3.07,5.85,7.3,7.3,0,0,1-3.16,6.23c-2.11,1.52-5,2.28-8.7,2.28m-7.18-7.9a4.38,4.38,0,0,0,1.85,3.77,8.3,8.3,0,0,0,5.09,1.34,8.61,8.61,0,0,0,5.48-1.47,5,5,0,0,0,1.9-4.22,4.42,4.42,0,0,0-1.83-3.83,9,9,0,0,0-5.29-1.3,8.41,8.41,0,0,0-5.34,1.46,5.16,5.16,0,0,0-1.86,4.25" transform="translate(-32.71 -32.42)"/><path id="_Tracé_12" data-name="&lt;Tracé&gt;" class="cls-2" d="M237,106.26q0.41-3,.71-7c0.18-2.66.3-5.59,0.35-8.73h9.34c1.14,0,2,0,2.5.07a7.09,7.09,0,0,1,1.42.33,4.07,4.07,0,0,1,2,1.44,4,4,0,0,1,.73,2.35,3.54,3.54,0,0,1-1.29,2.73,9,9,0,0,1-3.81,1.81c0.74,1.28,1.45,2.51,2.16,3.67s1.39,2.25,2.08,3.33h-5l-5.1-9L244,97.33c0.3,0,.62,0,1,0a7.54,7.54,0,0,0,3.47-.62,2,2,0,0,0,1.14-1.85,1.5,1.5,0,0,0-.84-1.48,8.86,8.86,0,0,0-3.3-.4c-0.39,0-.82,0-1.27,0l-1.41,0c-0.08.38-.18,0.75-0.23,1.12s-0.09.76-.13,1.14l-0.27,6.1a13.61,13.61,0,0,0-.1,1.92c0,1.11-.06,2.07-0.09,2.9H237Z" transform="translate(-32.71 -32.42)"/><path class="cls-2" d="M259,106.26l8.68-13.82a5.79,5.79,0,0,0,.45-0.83c0.15-.33.32-0.72,0.45-1.09H275c0.19,0.53.37,1,.53,1.44s0.37,0.86.56,1.22l6.27,13.08h-5.07c-0.15-.6-0.26-1-0.33-1.26a6.12,6.12,0,0,0-.21-0.6L274.58,100h-7.29L265,103.88a10.92,10.92,0,0,0-.57,1c-0.17.37-.35,0.83-0.55,1.36H259Zm12.35-13.57L268.6,97.5h5Z" transform="translate(-32.71 -32.42)"/><path id="_Tracé_13" data-name="&lt;Tracé&gt;" class="cls-2" d="M296.53,93.05L296,101.43c0,0.57-.06,1.13-0.08,1.68s0,1.14,0,1.71a8.11,8.11,0,0,0,0,.91,4.51,4.51,0,0,0,0,.53h-4.95c0.34-2.15.6-4.32,0.82-6.54s0.34-4.43.41-6.68c-0.17,0-.37,0-0.58,0h-0.94c-0.73,0-1.47,0-2.24,0s-1.56.06-2.36,0.12l0.23-2.65H303l-0.17,2.65c-0.74-.06-1.48-0.11-2.18-0.12s-1.44,0-2.13,0h-1.21c-0.27,0-.51,0-0.74,0" transform="translate(-32.71 -32.42)"/><path class="cls-2" d="M321.53,106.58c-3.81,0-6.73-.7-8.77-2a6.59,6.59,0,0,1-3.1-5.82,7.34,7.34,0,0,1,3.18-6.27c2.11-1.5,5-2.26,8.68-2.26s6.75,0.68,8.79,2a6.62,6.62,0,0,1,3.07,5.85,7.33,7.33,0,0,1-3.15,6.23q-3.16,2.28-8.71,2.28m-7.15-7.9a4.41,4.41,0,0,0,1.83,3.77,8.35,8.35,0,0,0,5.1,1.34,8.67,8.67,0,0,0,5.49-1.47,5,5,0,0,0,1.88-4.22,4.43,4.43,0,0,0-1.82-3.83,9,9,0,0,0-5.29-1.3,8.43,8.43,0,0,0-5.33,1.46,5.12,5.12,0,0,0-1.85,4.25" transform="translate(-32.71 -32.42)"/><path id="_Tracé_14" data-name="&lt;Tracé&gt;" class="cls-2" d="M348,90.52c-0.08.71-.19,1.32-0.26,1.84s-0.11,1-.12,1.43L347,102.74a3.6,3.6,0,0,0,0,.42c0,0.16,0,.43,0,0.78,0,0.55,0,1,0,1.32s0,0.67,0,1h-5c0.3-1.93.56-4.2,0.73-6.87s0.32-5.63.37-8.87H348Z" transform="translate(-32.71 -32.42)"/><path id="_Tracé_15" data-name="&lt;Tracé&gt;" class="cls-2" d="M356.8,106.26c0.29-2,.51-4.32.69-7s0.31-5.59.38-8.73h9.33c1.14,0,2,0,2.49.07a7.05,7.05,0,0,1,1.42.33,4,4,0,0,1,2,1.44,3.91,3.91,0,0,1,.72,2.35,3.57,3.57,0,0,1-1.29,2.73,8.88,8.88,0,0,1-3.8,1.81c0.74,1.28,1.46,2.51,2.15,3.67s1.4,2.25,2.1,3.33h-5l-5.1-9,0.88,0.08c0.28,0,.6,0,0.94,0a7.64,7.64,0,0,0,3.49-.62,2,2,0,0,0,1.14-1.85,1.51,1.51,0,0,0-.84-1.48,8.86,8.86,0,0,0-3.29-.4c-0.39,0-.83,0-1.29,0l-1.4,0a8.05,8.05,0,0,0-.25,1.12,11,11,0,0,0-.1,1.14l-0.32,6.1c0,0.16,0,.81-0.07,1.92s-0.06,2.07-.08,2.9h-4.9Z" transform="translate(-32.71 -32.42)"/><path id="_Tracé_16" data-name="&lt;Tracé&gt;" class="cls-2" d="M381.55,106.26q0.43-3,.72-7c0.19-2.66.3-5.58,0.37-8.76H398.2l-0.14,2.86c-0.82,0-1.58-.06-2.26-0.07s-1.15,0-1.46,0h-7.19a2.62,2.62,0,0,0-.15.63,11.09,11.09,0,0,0-.12,1.12l-0.1,1.54h6.4l2.18,0c0.49,0,.94,0,1.33-0.09l-0.15,3c-0.35,0-.71,0-1.14,0s-1,0-1.86,0h-6.92L386.45,101c0,0.49-.06.86-0.09,1.15s0,0.55,0,.8l0,0.34c0.66,0,1.21,0,1.68,0h1.28c1.58,0,3,0,4.34-.06s2.53-.09,3.65-0.16l-0.17,3.12H381.55Z" transform="translate(-32.71 -32.42)"/><path id="_Tracé_17" data-name="&lt;Tracé&gt;" class="cls-2" d="M409.16,98.11a9.38,9.38,0,0,1-2.5-2,3.21,3.21,0,0,1-.71-2,3.16,3.16,0,0,1,1.8-2.87,11.11,11.11,0,0,1,5.17-1c0.79,0,1.61,0,2.48.06s1.78,0.17,2.78.3l0.27,2.8c-1-.25-1.87-0.43-2.57-0.55a10.35,10.35,0,0,0-2-.17,6.28,6.28,0,0,0-2.58.42,1.3,1.3,0,0,0-.91,1.17,1,1,0,0,0,.18.56,1.33,1.33,0,0,0,.48.47l5.06,3.17a9.63,9.63,0,0,1,2.5,2,3.17,3.17,0,0,1,.74,2,3.4,3.4,0,0,1-2,3,11.28,11.28,0,0,1-5.44,1.13,26.89,26.89,0,0,1-3.58-.23,13.92,13.92,0,0,1-2.69-.62l-0.24-3a30.25,30.25,0,0,0,3.42.93,14.12,14.12,0,0,0,2.75.32,6.23,6.23,0,0,0,2.5-.4,1.31,1.31,0,0,0,.91-1.17,1.17,1.17,0,0,0-.31-0.68,3.91,3.91,0,0,0-.9-0.75Z" transform="translate(-32.71 -32.42)"/></g>


</svg>